**ABCDEFGHIJKLMNOPQRSTUVWXYZabcdefghijklmnopqrstuvwxyz**************************
**PARASOLID !"#$%&'()*+,-./:;<=>?@[\]^_`{|}~0123456789**************************
**PART1;
MC=AMD64;
MC_MODEL=Intel64 Family 6 Model 158 Stepping 13, GenuineIntel;
MC_ID=unknown;
OS=Windows_NT;
OS_RELEASE=unknown;
FRU=Parasolid Version 35.1, build 251, 11- 4-2023;
APPL=SOLIDWORKS 2024-2024157;
SITE=;
USER=unknown;
FORMAT=text;
GUISE=transmit;
KEY=Part1;
FILE=Part1.x_t;
DATE=Thu Mar 13 14:16:10 2025;
**PART2;
SCH=SCH_3501251_35102;
USFLD_SIZE=0;
**PART3;
**END_OF_HEADER*****************************************************************
T51 : TRANSMIT FILE created by modeller version 350125123 SCH_3501251_35102_1300
6231 0 10 21 CCCCI7 lattice222 0 CCCI4 mesh1006 0 I8 polyline1008 0 CCCCCCCCCCA1
6 mesh_offset_data206 0 Z1 5 2 3 0 0 0 0 0 0 0 0 1e3 1e-8 0 0 0 1 0 1 4 0 81 255
 2 2 5 5 1 0 0 0 0 0 0 70 11 CI9 list_type0 0 1 uI10 notransmit0 0 1 lCCCDCCDI12
 finger_index0 0 1 dI12 finger_block1012 0 CZ3 0 4 T1 0 0 1 20 1 6 6 11 255 4 3
 0 1 7 8 1 9 0 0 0 12 36 CCCI7 lattice222 0 CCCI4 mesh1006 0 I8 polyline1008 0 C
CCCCCCDI5 owner1040 0 CCCI16 boundary_lattice222 0 CCCI13 boundary_mesh1006 0 I1
7 boundary_polyline1008 0 CCCA16 index_map_offset0 0 1 dA9 index_map82 0 A17 nod
e_id_index_map82 0 A20 schema_embedding_map82 0 A5 child12 0 A14 lowest_node_id0
 0 1 dA16 mesh_offset_data206 0 Z7 60 10 11 0 0 0 0 0 0 0 1e3 1e-8 4 12 0 1 0 3
 1 13 0 14 15 16 0 0 17 18 19 0 0 0 0 0 0 0 100 10 CCCCCCCCCA9 precision229 0 Z8
 4 4 0 0 1 0 0 0 1 0 0 0 1 0 0 0 1 0 ?0 11 9 1 0 1 12 20 1 0 4 0 0 12 12 59 21 2
2 0 0 0 0 0 0 0 1e3 1e-8 9 23 7 1 0 3 1 24 0 25 26 27 0 0 28 29 30 0 0 0 0 0 0 0
 100 20 2 9 0 0 1 0 0 0 1 0 0 0 1 0 0 0 1 0 ?0 81 1 21 59 31 12 32 0 0 0 0 70 22
 0 4 T12 0 0 4 20 1 33 33 13 255 24 34 0 12 0 34 0 0 28 34 50 255 25 3 0 34 0 0
 0 +.0386494317967182 .0176019560977243 0 0 0 1 1 0 0 30 255 26 19 0 29 35 0 0 +
0 0 0 0 -1 0 29 255 27 32 0 30 36 0 0 0 0 19 9 CCCCCCI5 frame230 0 CA5 owner12 0
 Z28 33 0 12 0 0 24 0 V0 16 255 29 17 0 ?37 0 38 26 0 0 12 18 255 30 30 0 39 0 4
0 27 ?12 17 255 39 0 0 0 0 30 41 42 0 37 -18 40 27 0 43 30 44 36 ?12 17 43 0 45
 37 46 40 47 38 0 48 +18 44 24 0 46 40 49 50 ?12 29 36 29 0 40 50 27 0 .02709080
335401315 0 29 50 26 0 44 51 36 .0769830328643207 .01252949655123108 0 29 51 23
 0 49 0 50 .0769830328643207 0 0 18 49 21 0 41 44 0 51 ?12 17 41 0 45 46 37 49 3
9 42 0 52 +15 255 45 4 0 41 34 0 17 46 0 45 43 41 44 52 53 0 47 +17 37 0 45 41 4
3 30 48 29 0 0 +16 42 5 0 ?41 53 0 54 0 0 12 17 52 0 0 0 0 49 46 53 0 0 -16 53 9
 0 ?46 38 42 55 0 0 12 16 38 13 0 ?43 29 53 35 0 0 12 30 55 11 0 53 54 35 0 +.07
69830328643207 0 0 0 1 0 30 54 7 0 42 0 55 0 +.0769830328643207 0 0 1 0 0 134 25
5 35 15 0 38 55 26 0 +56 57 136 255 56 3 4 3 2 5 FFF1 58 59 60 135 255 57 2 0 45
 255 12 58 .0769830328643207 .01252949655123108 0 .0493667142599302 .00029062375
7652748 0 .0280374262432114 .03344115920119735 0 0 .02709080335401315 0 127 255
 2 59 4 4 128 255 2 60 0 1 17 48 0 0 0 0 40 37 29 0 0 -17 47 0 0 0 0 44 43 38 0
 0 -14 255 34 1 61 ?0 0 45 24 25 +0 0 0 0 24 81 1 61 58 62 34 63 0 0 0 64 80 7 C
CCCCDI12 legal_owners0 16 1 lCZ1 62 65 66 9000 1 1 1 1 1 1 1 1 0 FFFFTFTFFFFFFFF
F1 81 1 63 49 67 34 0 61 0 0 68 82 255 1 64 375718330 80 1 67 0 69 8001 0 0 0 0
 3 5 0 0 0 FFFFTFTFFFFFFFFF2 83 255 3 68 1 1 1 79 255 15 69 SDL/TYSA_COLOUR79 14
 66 SWEntUnchanged74 4 CI16 index_map_offset0 0 1 dCCZ20 33 4 0 0 32 63 61 21 0
 0 0 0 0 0 0 0 0 0 0 0 0 0 0 0 81 2 32 45 70 12 0 21 0 0 71 0 80 2 70 72 73 9000
 0 0 0 0 3 5 0 0 0 FFTFTTTFFTFFFFFF10 10 98 255 14 71 83 117 114 102 97 99 101 4
5 80 108 97 110 101 50 79 23 73 SWIMPLICITBODYNAME_ID_U80 1 31 74 75 8017 0 0 0
 0 0 0 0 0 0 TTTTTTTTTTTTTFTF3 79 13 75 SDL/TYSA_NAME81 1 10 60 31 7 76 0 0 0 0
 70 11 0 4 T7 0 0 4 20 1 77 77 13 13 34 0 7 0 78 0 0 17 78 50 14 3 0 78 0 0 0 +.
0924632403165641 .0125906216970876 0 0 0 -1 -1 0 0 134 15 19 0 18 79 0 0 +80 81
 29 16 32 0 19 82 0 .0769830328643207 .01172459431914734 0 19 17 33 0 7 0 0 13 0
 V0 16 18 17 0 ?83 0 84 15 0 0 7 18 19 30 0 85 0 86 16 ?7 17 85 0 0 0 0 19 87 88
 0 83 -18 86 27 0 89 19 90 82 ?7 17 89 0 91 83 92 86 93 84 0 94 +18 90 24 0 92 8
6 95 96 ?7 29 82 29 0 86 96 16 .106978867427809 .0179135244785214 0 29 96 26 0 9
0 97 82 .106978867427809 0 0 29 97 23 0 95 0 96 .0769830328643207 0 0 18 95 21 0
 87 90 0 97 ?7 17 87 0 91 92 83 95 85 88 0 98 +15 91 4 0 87 78 0 17 92 0 91 89 8
7 90 98 99 0 93 +17 83 0 91 87 89 19 94 18 0 0 +16 88 5 0 ?87 99 0 100 0 0 7 17
 98 0 0 0 0 95 92 99 0 0 -16 99 9 0 ?92 84 88 101 0 0 7 16 84 13 0 ?89 18 99 79
 0 0 7 30 101 11 0 99 100 79 0 +.0769830328643207 0 0 1 0 0 30 100 7 0 88 0 101
 0 +.0769830328643207 .01172459431914734 0 0 -1 0 30 79 15 0 84 101 15 0 +.10697
8867427809 0 0 0 1 0 17 94 0 0 0 0 86 83 18 0 0 -17 93 0 0 0 0 90 89 84 0 0 -14
 78 1 102 ?0 0 91 13 14 -0 0 0 0 13 81 1 102 59 62 78 103 0 0 0 104 81 1 103 50
 67 78 0 102 0 0 105 82 1 104 808583614 83 3 105 1 1 1 136 80 2 3 3 2 5 FFF1 106
 107 108 135 81 2 0 45 9 106 .106978867427809 .0179135244785214 0 .0929455304870
633 .01036218399534082 0 .0769830328643207 .01172459431914734 0 127 2 107 3 3 12
8 2 108 0 1 74 20 77 4 0 0 76 103 102 10 0 0 0 0 0 0 0 0 0 0 0 0 0 0 0 0 81 2 76
 45 70 7 0 10 0 0 109 0 98 14 109 83 117 114 102 97 99 101 45 80 108 97 110 101
 51 74 20 6 1 0 0 2 0 0 0 0 0 0 0 0 0 0 0 0 0 0 0 0 0 0 0 80 2 5 110 111 9000 0
 0 0 0 3 5 0 0 0 TFFFFFFFFFFFFFFF9 1 79 18 111 MULTI_BODY_ID_20011 0 
